<svg width="469" height="442" viewBox="0 0 420 612" fill="none" xmlns="http://www.w3.org/2000/svg">
<path fill-rule="evenodd" clip-rule="evenodd" d="M500.278 34.57C556.368 62.2828 597.224 111.509 632.657 163.071C667.089 213.177 698.16 267.671 702.15 328.337C706.055 387.715 680.389 443.615 654.635 497.26C629.713 549.173 603.719 604.047 555.028 634.791C507.456 664.829 447.186 654.681 391.596 663.347C333.704 672.371 277.328 700.961 220.438 686.949C160.311 672.139 108.315 632.359 69.5925 584.036C30.2103 534.889 -0.472986 474.829 -0.00356424 411.851C0.450352 350.955 43.3699 301.074 72.1019 247.38C98.4907 198.064 122.521 148.715 162.001 109.095C205.925 65.0153 252.556 18.6859 313.327 5.29767C375.994 -8.50831 442.747 6.14548 500.278 34.57Z" fill="#5500FF" fill-opacity="0.1"/>
</svg>
