<svg width="47" height="50" viewBox="0 0 47 50" fill="none" xmlns="http://www.w3.org/2000/svg">
<path fill-rule="evenodd" clip-rule="evenodd" d="M23.5 3.43436C12.3824 3.43436 3.375 13.1128 3.375 25.0578C3.375 34.6126 9.14225 42.7141 17.1376 45.5743C18.1439 45.7722 18.5119 45.1043 18.5119 44.5322C18.5119 44.0189 18.4946 42.6584 18.4831 40.8526C12.8855 42.1606 11.7067 37.9552 11.7067 37.9552C10.7896 35.4568 9.47 34.7919 9.47 34.7919C7.64437 33.4499 9.608 33.4778 9.608 33.4778C11.6291 33.6324 12.6929 35.7041 12.6929 35.7041C14.4869 39.0127 17.4021 38.0542 18.5492 37.5038C18.7304 36.1061 19.2508 35.1537 19.8258 34.6126C15.358 34.0684 10.6602 32.2131 10.6602 23.9261C10.6602 21.5668 11.4451 19.6342 12.7303 18.1252C12.5233 17.5779 11.8333 15.3794 12.9315 12.4047C12.9315 12.4047 14.6163 11.8203 18.463 14.6187C20.1047 14.1376 21.7984 13.8922 23.5 13.8889C25.2106 13.8982 26.9328 14.1363 28.5399 14.6187C32.3809 11.8203 34.0685 12.4016 34.0685 12.4016C35.1667 15.3794 34.4768 17.5779 34.2698 18.1221C35.5578 19.6373 36.3397 21.5668 36.3397 23.9261C36.3397 32.2316 31.6305 34.0622 27.1484 34.594C27.87 35.262 28.514 36.5823 28.514 38.6015C28.514 41.4896 28.4881 43.821 28.4881 44.5322C28.4881 45.1105 28.8533 45.7815 29.8739 45.5712C33.877 44.1356 37.3588 41.3822 39.8267 37.7007C42.2945 34.0193 43.6233 29.5963 43.625 25.0578C43.622 19.3202 41.5 13.8188 37.7259 9.7637C33.9518 5.7086 28.8347 3.4319 23.5 3.43436Z" fill="#482E2E"/>
</svg>
