<svg width="40" height="40" viewBox="0 0 40 40" fill="none" xmlns="http://www.w3.org/2000/svg">
<path d="M19.574 23.3333C8.56604 21.6666 9.4128 14.1666 12.7998 11.6666C12.1314 10.6526 11.1063 6.66666 11.953 5.00002C13.6465 5.83333 15.9195 7.06573 17.0337 8.33332C20.4207 6.66666 25.5012 6.66666 28.0415 8.33332C28.71 6.98121 31.1613 5.70423 32.2753 5C33.278 6.01408 32.5538 9.97651 32.2753 11.6666C33.9463 15.3286 34.8157 20.8333 25.5012 23.3333C26.8788 24.4479 29.0952 27.1086 30.6365 30.1487C31.7288 32.3034 29.6407 34.2834 27.2618 33.8626C25.601 33.5687 23.7575 33.3332 22.1142 33.3332C20.1242 33.3332 17.49 33.6784 15.2103 34.0547C12.8526 34.4437 10.9456 32.4119 12.1549 30.3509C13.0329 28.8546 14.1399 27.4541 15.3401 26.6666C14.9224 26.1033 13.2675 24.4811 10.2596 25.8333C6.49965 27.5234 4.34345 23.7793 5.17899 21.6666" stroke="#482E2E" stroke-width="1.33" stroke-linecap="round" stroke-linejoin="round"/>
</svg>
