<svg width="inherit" height="inherit" viewBox="0 0 37 40" fill="none" xmlns="http://www.w3.org/2000/svg">
<path fill-rule="evenodd" clip-rule="evenodd" d="M36.1787 16.2152H18.8803C18.8803 18.1501 18.8803 22.0195 18.8693 23.9543H28.8933C28.5092 25.8892 27.1473 28.5985 25.223 29.9626C25.223 29.9626 25.2193 29.974 25.2156 29.9721C22.6572 31.7889 19.281 32.2012 16.7741 31.6594C12.8446 30.8197 9.73486 27.7547 8.47222 23.8617C8.47957 23.8559 8.48511 23.8022 8.49062 23.7984C7.70032 21.3837 7.70032 18.1501 8.49062 16.2152H8.48878C9.50698 12.659 12.7104 9.41432 16.6454 8.52622C19.8103 7.80451 23.3814 8.58578 26.0078 11.2288C26.357 10.8612 30.8414 6.15191 31.1778 5.7688C22.2051 -2.97102 7.83815 0.103405 2.46226 11.3895H2.46042C2.46042 11.3895 2.46227 11.39 2.45124 11.4113C-0.208217 16.9547 -0.0979453 23.4866 2.46962 28.7649C2.46227 28.7707 2.45676 28.7743 2.45124 28.7801C4.77804 33.6366 9.01259 37.3611 14.1146 38.7794C19.5346 40.3079 26.4323 39.2632 31.0528 34.7685L31.0584 34.7742C34.9731 30.9818 37.4102 24.5216 36.1787 16.2152Z" fill="#482E2E"/>
</svg>
