<svg width="22" height="22" viewBox="0 0 22 22" fill="none" xmlns="http://www.w3.org/2000/svg">
<path d="M19.1034 4.22583C18.6352 3.75742 18.0793 3.38584 17.4674 3.13232C16.8556 2.87881 16.1998 2.74832 15.5375 2.74832C14.8752 2.74832 14.2195 2.87881 13.6076 3.13232C12.9958 3.38584 12.4399 3.75742 11.9717 4.22583L11 5.19749L10.0284 4.22583C9.08264 3.28011 7.79997 2.74881 6.46253 2.74881C5.12508 2.74881 3.84241 3.28011 2.89669 4.22583C1.95098 5.17155 1.41968 6.45421 1.41968 7.79166C1.41968 9.12911 1.95098 10.4118 2.89669 11.3575L11 19.4608L19.1034 11.3575C19.5718 10.8893 19.9433 10.3334 20.1969 9.72157C20.4504 9.10973 20.5809 8.45394 20.5809 7.79166C20.5809 7.12938 20.4504 6.47359 20.1969 5.86175C19.9433 5.24992 19.5718 4.69402 19.1034 4.22583Z" stroke="#482E2E" stroke-width="2" stroke-linecap="round" stroke-linejoin="round"/>
</svg>
