<svg width="35" height="40" viewBox="0 0 50 50" fill="none" xmlns="http://www.w3.org/2000/svg">
<path d="M12.2198 33.364C11.5857 31.2947 11.8845 29.1149 11.6175 26.998C11.3903 25.198 10.9719 15.5032 12.4202 14.068C15.0034 11.5081 34.2034 10.0929 36.9108 13.6702C38.8769 16.2676 38.5166 21.3607 38.5166 24.4121C38.5166 27.7079 39.288 32.7987 36.7099 35.3531C32.8307 39.1972 18.8502 38.8356 13.6247 37.5414" stroke="#482E2E" stroke-width="2" stroke-linecap="round" stroke-linejoin="round"/>
<path d="M11.5439 22.2775C13.5094 21.5941 19.1153 22.696 19.333 22.2372C19.882 21.0804 21.2905 18.6675 24.7394 18.0049C27.1609 17.5396 30.7665 18.0049 31.9275 20.3749C37.6278 32.011 25.5771 35.4365 22.136 33.5881C19.0918 31.953 19.333 29.7394 19.333 28.0087" stroke="#482E2E" stroke-width="2" stroke-linecap="round" stroke-linejoin="round"/>
<path d="M23.8025 23.1859C24.4511 22.4729 25.7837 21.5197 26.8185 21.7784C30.0796 22.5936 30.025 28.9391 26.6172 29.621C23.4172 30.2609 21.005 25.5902 23.8025 24.1912" stroke="#482E2E" stroke-width="2" stroke-linecap="round" stroke-linejoin="round"/>
<path d="M33.9224 22.2215C34.765 22.105 37.4792 22.2046 38.3007 22.0594" stroke="#482E2E" stroke-width="2" stroke-linecap="round" stroke-linejoin="round"/>
<path d="M34.9763 17.3834C34.9763 17.3114 34.9763 17.2399 34.9763 17.1679" stroke="#482E2E" stroke-width="2" stroke-linecap="round" stroke-linejoin="round"/>
</svg>
