<svg width="35" height="40" viewBox="0 0 50 50" fill="none" xmlns="http://www.w3.org/2000/svg">
<path d="M12.6541 33.7265C12.633 31.1554 11.3502 15.2135 12.4352 13.428C12.9316 12.611 35.4498 10.9836 36.946 13.3779C38.4423 15.772 38.4423 36.4074 36.3184 37.2422C33.1536 38.4862 19.1256 37.5685 14.8305 37.2422" stroke="#482E2E" stroke-width="2" stroke-linecap="round" stroke-linejoin="round"/>
<path d="M19 31.375C19.2812 28.4599 19 25.5452 19 22.625" stroke="#482E2E" stroke-width="2" stroke-linecap="round" stroke-linejoin="round"/>
<path d="M18.875 19C18.875 18.7138 19 18.8627 19 18.625" stroke="#482E2E" stroke-width="2" stroke-linecap="round" stroke-linejoin="round"/>
<path d="M24 22.625C23.8097 25.4845 23.8932 28.3769 23.8932 31.25" stroke="#482E2E" stroke-width="2" stroke-linecap="round" stroke-linejoin="round"/>
<path d="M24 25.0544C24 23.8173 25.5548 22.8174 26.4379 22.5973C32.1031 21.1854 31.7617 24.0884 31.5115 31.125" stroke="#482E2E" stroke-width="2" stroke-linecap="round" stroke-linejoin="round"/>
</svg>
