<svg width="20" height="20" viewBox="0 0 31 33" fill="none" xmlns="http://www.w3.org/2000/svg">
<path d="M28.625 17.7179C28.3956 20.3421 27.4639 22.843 25.9391 24.928C24.4142 27.0129 22.3592 28.5956 20.0145 29.4909C17.6699 30.3862 15.1325 30.5571 12.6993 29.9836C10.266 29.41 8.03768 28.1158 6.27489 26.2522C4.5121 24.3887 3.28781 22.033 2.74526 19.4608C2.20271 16.8885 2.36436 14.2061 3.21127 11.7275C4.05819 9.24878 5.55536 7.07636 7.52758 5.46437C9.4998 3.85238 11.8655 2.86751 14.3479 2.625C12.8945 4.70358 12.1952 7.26457 12.377 9.84218C12.5588 12.4198 13.6098 14.8428 15.3387 16.6705C17.0676 18.4982 19.3596 19.6092 21.7979 19.8014C24.2362 19.9936 26.6588 19.2543 28.625 17.7179Z" stroke="#482E2E" stroke-width="4" stroke-linecap="round" stroke-linejoin="round"/>
</svg>
